<?xml version="1.0" encoding="UTF-8"?>
<svg viewBox="0 0 400 500" xmlns="http://www.w3.org/2000/svg" xmlns:xlink="http://www.w3.org/1999/xlink">
 <defs>
  <linearGradient id="a">
   <stop stop-color="#fff" offset="0"/>
   <stop stop-color="#fff" offset=".38447"/>
   <stop offset=".43238"/>
   <stop offset=".57929"/>
   <stop stop-color="#fff" offset=".62907"/>
   <stop stop-color="#fff" offset="1"/>
  </linearGradient>
  <linearGradient id="h" x1="271.76" x2="273.76" y1="127.43" y2="130.98" gradientUnits="userSpaceOnUse" spreadMethod="reflect">
   <stop stop-color="#dcc499" offset="0"/>
   <stop stop-color="#e5d8c0" offset="1"/>
  </linearGradient>
  <linearGradient id="g" x1="89.822" x2="118.05" y1="276.67" y2="228.75" gradientTransform="scale(1.5037 .66505)" gradientUnits="userSpaceOnUse" spreadMethod="reflect">
   <stop stop-color="#ae4343" stop-opacity="0" offset="0"/>
   <stop stop-color="#cea3a3" stop-opacity=".55294" offset=".52727"/>
   <stop stop-color="#ad8787" stop-opacity="0" offset="1"/>
  </linearGradient>
  <linearGradient id="f" x1="43.792" x2="162.38" y1="303.08" y2="143.26" gradientTransform="scale(1.698 .58891)" gradientUnits="userSpaceOnUse">
   <stop stop-color="#ffc0c0" stop-opacity="0" offset="0"/>
   <stop stop-color="#d49a9a" stop-opacity=".44706" offset=".52727"/>
   <stop stop-color="#e35b5b" stop-opacity="0" offset="1"/>
  </linearGradient>
  <linearGradient id="j" x1="245.45" x2="248.3" y1="754.51" y2="761.35" gradientTransform="scale(1.972 .50709)" gradientUnits="userSpaceOnUse" xlink:href="#a" spreadMethod="reflect"/>
  <linearGradient id="b" x1="57.406" x2="52.163" y1="535.36" y2="545.48" gradientTransform="scale(1.6101 .62107)" gradientUnits="userSpaceOnUse" xlink:href="#a" spreadMethod="reflect"/>
  <linearGradient id="i" x1="58.899" x2="53.519" y1="519.94" y2="530.33" gradientTransform="scale(1.5728 .63579)" gradientUnits="userSpaceOnUse" xlink:href="#a" spreadMethod="reflect"/>
  <linearGradient id="c" x1="207.99" x2="211.42" y1="314.02" y2="319.23" gradientTransform="scale(1.4033 .71261)" gradientUnits="userSpaceOnUse" xlink:href="#a" spreadMethod="reflect"/>
  <linearGradient id="e" x1="54.573" x2="52.163" y1="533.59" y2="545.48" gradientTransform="scale(1.6101 .62107)" gradientUnits="userSpaceOnUse" xlink:href="#a" spreadMethod="reflect"/>
  <linearGradient id="d" x1="245.45" x2="249.72" y1="754.51" y2="764.13" gradientTransform="scale(1.972 .50709)" gradientUnits="userSpaceOnUse" xlink:href="#a" spreadMethod="reflect"/>
 </defs>
 <path transform="matrix(.93772 .35991 -.38777 1.1924 -299.31 -201.27)" d="m475.14 356.13-5.3144-39.371 350.12-103.79-167.53 158.01-177.27-14.846z" fill="#fff" fill-rule="evenodd"/>
 <path transform="matrix(1.0194 .39125 -.45849 1.4099 163.86 -114.82)" d="m4.8789 355.48 166.79 15.206c5.5986-13.731 3.0538-19.318 0-32.03l-169.03-11.642c2.1594 12.116 4.4015 17.43 2.2422 28.467z" fill="url(#e)" fill-rule="evenodd"/>
 <path transform="matrix(1.0194 .39125 -.45849 1.4099 163.86 -114.82)" d="m6.2781 358.22 165.75 13.182" fill="none" stroke="#c1ad99" stroke-linecap="round" stroke-width="3.75"/>
 <path transform="matrix(1.0194 .39125 -.45849 1.4099 163.86 -114.82)" d="m172.98 372.65 166.82-100.96c4.214-10.466-2.8034-24.108-10.794-34.72l-166.61 99.433c7.3604 9.0136 13.129 25.557 10.584 36.245z" fill="#dec7b1" fill-rule="evenodd" stroke="#c1ad99" stroke-linecap="round" stroke-linejoin="round" stroke-width="1.9663"/>
 <path transform="matrix(1.0194 .39125 -.45849 1.4099 163.86 -114.82)" d="m0.57074 325.56 160.78 11.084 166.53-100.06-153.5-5.1369-173.81 94.11z" fill="#dec7b1" fill-rule="evenodd" stroke="#c1ad99" stroke-linecap="round" stroke-linejoin="round" stroke-width="1.9663"/>
 <path transform="matrix(1.0218 -.0286 .03144 1.1235 -440.45 364.34)" d="m473.46-122.91 63.41 181.77 238.49-22.762 0.35083-36.421-302.25-122.59z" fill="#fff" fill-rule="evenodd"/>
 <path transform="matrix(1.2594 -.03525 .03388 1.2107 -402 -103.13)" d="m397.68 408.66 192.9-23.393-104.73-122.72-141.8 7.5577 53.624 138.56z" fill="#6d4fc1" fill-rule="evenodd" stroke="#6d4fc1" stroke-width="1.25"/>
 <path transform="matrix(1.2594 -.03525 .03388 1.2107 -402 -103.13)" d="m396.24 409.74c-3.1155 5.1258-2.7902 24.905 0.59795 30.453-8.6762 1.6942-16.754-6.6688-21.472-21.096l-37.429-114.45c-4.6965-14.36-5.2184-27.232 4.6786-33.47l53.624 138.56z" fill="#6d4fc1" fill-rule="evenodd" stroke="#6d4fc1" stroke-width="1.25"/>
 <path transform="matrix(1.2594 -.03525 .03388 1.2107 -402 -103.13)" d="m396.96 410.16c-2.3958 9.2809-3.2646 18.562-1.0797 26.57l192.59-17.591 0.4653-32.372-191.97 23.393z" fill="url(#d)" fill-rule="evenodd"/>
 <path transform="matrix(1.2594 -.03525 .03388 1.2107 -402 -103.13)" d="m589.14 417.9-195.06 21.347" fill="none" stroke="#6d4fc1" stroke-width="3.75"/>
 <g transform="translate(-417.53 301.31)">
  <path d="m473.46-122.91 63.41 181.77 238.84-18.318v-40.864l-302.25-122.59z" fill="#fff" fill-rule="evenodd"/>
  <path transform="matrix(1.2325 0 0 1.0776 50.395 -414.8)" d="m589.14 421.97-195.06 17.275" fill="none" stroke="#33974b" stroke-width="3.75"/>
  <path transform="matrix(1.2325 0 0 1.0776 50.395 -414.8)" d="m397.68 408.66 192.9-23.393-104.73-122.72-141.8 7.5577 53.624 138.56z" fill="#33974b" fill-rule="evenodd" stroke="#33974b" stroke-width="1.25"/>
  <path transform="matrix(1.2325 0 0 1.0776 50.395 -414.8)" d="m396.24 409.74c-3.1155 5.1258-4.4678 24.324-1.0797 29.871-7.5577 0.23992-15.076-6.0871-19.794-20.514l-37.429-114.45c-4.6965-14.36-5.2184-27.232 4.6786-33.47l53.624 138.56z" fill="#33974b" fill-rule="evenodd" stroke="#33974b" stroke-width="1.25"/>
  <path transform="matrix(1.2325 0 0 1.0776 50.395 -414.8)" d="m396.96 410.16c-2.3958 9.2809-3.2646 18.562-1.0797 26.57l192.59-17.591 0.4653-32.372-191.97 23.393z" fill="url(#j)" fill-rule="evenodd"/>
 </g>
 <g transform="translate(-456.41 -42.978)">
  <path d="m468.53 331.52v-42.273l366.37-78.205-182.48 159.93-183.89-39.455z" fill="#fff" fill-rule="evenodd"/>
  <path transform="matrix(1.0871 0 0 1.1824 465.78 -68.086)" d="m1.4396 336.85 170.23 33.83c5.5986-13.731 3.0538-19.318 0-32.03l-170.23-34.91c2.1594 12.116 2.1594 22.073 0 33.11z" fill="url(#b)" fill-rule="evenodd"/>
  <path transform="matrix(1.0871 0 0 1.1824 465.78 -68.086)" d="m1.0797 337.21 170.95 34.19" fill="none" stroke="#9c550d" stroke-linecap="round" stroke-width="3.75"/>
  <path transform="matrix(1.0871 0 0 1.1824 465.78 -68.086)" d="m171.82 370.21 167.66-96.492 0.50897-35.118-167.45 100.27c2.0359 10.179 1.825 20.657-0.71978 31.345z" fill="#a57141" fill-rule="evenodd" stroke="#9c550d" stroke-linecap="round" stroke-linejoin="round" stroke-width="5"/>
  <path transform="matrix(1.0871 0 0 1.1824 465.78 -68.086)" d="m2.0359 301.71 167.96 35.118 168.98-101.28-146.07-25.448-190.86 91.613z" fill="#a57141" fill-rule="evenodd" stroke="#9c550d" stroke-linecap="round" stroke-linejoin="round" stroke-width="1.25"/>
 </g>
 <g transform="translate(-132.9 -234.62)">
  <path d="m160.64 424.52 193.05 107.8 169.8-58.478c-3.2879-8.4546-6.5758-21.136-5.6364-33.818l-357.21-15.5z" fill="#fff" fill-rule="evenodd"/>
  <path transform="matrix(-1.03 .14866 .14027 1.0087 477.44 133.58)" d="m1.4396 336.85 170.23 33.83c5.5986-13.731 3.0538-19.318 0-32.03l-170.23-34.91c2.1594 12.116 2.1594 22.073 0 33.11z" fill="url(#b)" fill-rule="evenodd"/>
  <path transform="matrix(-1.03 .14866 .14027 1.0087 477.44 133.58)" d="m1.0797 337.21 170.95 34.19" fill="none" stroke="#e86949" stroke-linecap="round" stroke-width="3.75"/>
  <path transform="matrix(-1.03 .14866 .14027 1.0087 477.44 133.58)" d="m171.82 370.21 167.66-96.492 0.50897-35.118-167.45 100.27c2.0359 10.179 1.825 20.657-0.71978 31.345z" fill="#e86949" fill-rule="evenodd" stroke="#e89985" stroke-linecap="round" stroke-linejoin="round" stroke-width="5"/>
  <path transform="matrix(-1.03 .14866 .14027 1.0087 477.44 133.58)" d="m2.0359 301.71 167.96 35.118 168.98-101.28-146.07-25.448-190.86 91.613z" fill="#e86949" fill-rule="evenodd" stroke="#e86949" stroke-linecap="round" stroke-linejoin="round" stroke-width="1.25"/>
 </g>
 <g transform="translate(-4.5692 -243.07)">
  <path d="m23.955 430.16c2.3485 14.561 0.4697 22.076-3.5228 31l182.48 43.682 193.05-114.14-372 39.455z" fill="#fff" fill-rule="evenodd"/>
  <path transform="matrix(1.0851 .064808 -.055249 .92508 38.321 150.51)" d="m1.4396 336.85 170.23 33.83c5.5986-13.731 3.9704-24.374 0.91657-37.087l-170.23-33.224c2.1594 12.116 1.2428 25.444-0.91657 36.481z" fill="url(#i)" fill-rule="evenodd"/>
  <path transform="matrix(1.0851 .064808 -.055249 .92508 38.321 150.51)" d="m1.0797 337.21 170.95 34.19" fill="none" stroke="#6d9be0" stroke-linecap="round" stroke-width="3.75"/>
  <path transform="matrix(1.0851 .064808 -.055249 .92508 38.321 150.51)" d="m171.82 370.21 167.66-96.492 0.50897-35.118-167.45 100.27c2.0359 10.179 1.825 20.657-0.71978 31.345z" fill="#6d9be0" fill-rule="evenodd" stroke="#486694" stroke-linecap="round" stroke-linejoin="round" stroke-width="5"/>
  <path transform="matrix(1.0851 .064808 -.055249 .92508 38.321 150.51)" d="m2.0359 301.71 167.96 35.118 168.98-101.28-146.07-25.448-190.86 91.613z" fill="#6d9be0" fill-rule="evenodd" stroke="#6d9be0" stroke-linecap="round" stroke-linejoin="round" stroke-width="1.25"/>
 </g>
 <g transform="translate(-101.8 -257.16)">
  <path d="m135.27 463.27v-20.432l310-38.75-155 78.91-155-19.727z" fill="#fff" fill-rule="evenodd"/>
  <path transform="matrix(.92297 0 0 .58843 132.42 264.83)" d="m1.4396 336.85 170.23 33.83c5.5986-13.731 3.0538-19.318 0-32.03l-170.23-34.91c2.1594 12.116 2.1594 22.073 0 33.11z" fill="url(#b)" fill-rule="evenodd"/>
  <path transform="matrix(.92297 0 0 .58843 132.42 264.83)" d="m1.0797 337.21 170.95 34.19" fill="none" stroke="#a57141" stroke-linecap="round" stroke-width="3.75"/>
  <path transform="matrix(.92297 0 0 .58843 132.42 264.83)" d="m171.82 370.21 167.66-96.492 0.50897-35.118-167.45 100.27c2.0359 10.179 1.825 20.657-0.71978 31.345z" fill="#a57141" fill-rule="evenodd" stroke="#a57141" stroke-linecap="round" stroke-linejoin="round" stroke-width="5"/>
  <path transform="matrix(.92297 0 0 .58843 132.42 264.83)" d="m2.0359 301.71 167.96 35.118 168.98-101.28-146.07-25.448-190.86 91.613z" fill="#a57141" fill-rule="evenodd" stroke="#a57141" stroke-linecap="round" stroke-linejoin="round" stroke-width="1.25"/>
 </g>
 <path transform="matrix(.95631 0 0 .95631 -88.051 -259.11)" d="m135.27 463.27v-20.432l310-38.75-155 78.91-155-19.727z" fill="#fff" fill-rule="evenodd"/>
 <path transform="matrix(.88265 0 0 .56272 38.582 -5.8481)" d="m1.4396 336.85 170.23 33.83c5.5986-13.731 3.0538-19.318 0-32.03l-170.23-34.91c2.1594 12.116 2.1594 22.073 0 33.11z" fill="url(#b)" fill-rule="evenodd"/>
 <path transform="matrix(.88265 0 0 .56272 38.582 -5.8481)" d="m1.0797 337.21 170.95 34.19" fill="none" stroke="#dfeb5c" stroke-linecap="round" stroke-width="3.75"/>
 <path transform="matrix(.88265 0 0 .56272 38.582 -5.8481)" d="m171.82 370.21 167.66-96.492c2.8414-10.708 3.011-24.41 0.50897-37.513l-168.59 101.46c2.0359 10.179 2.9701 21.854 0.42524 32.542z" fill="#dfeb5c" fill-rule="evenodd" stroke="#cdd854" stroke-linecap="round" stroke-linejoin="round" stroke-width="1.6962"/>
 <path transform="matrix(.88265 0 0 .56272 38.582 -5.8481)" d="m2.0359 301.71 167.96 35.118 168.98-101.28-146.07-25.448-190.86 91.613z" fill="#dfeb5c" fill-rule="evenodd" stroke="#dfeb5c" stroke-linecap="round" stroke-linejoin="round" stroke-width="1.25"/>
 <g transform="translate(-404.75 -199.39)">
  <path d="m759.5 316.02v23.955l-133.16 44.387-188.82-57.069 10.568-2.8182 311.41-8.4546z" fill="#fff" fill-rule="evenodd"/>
  <path transform="matrix(1.0594 0 0 1.0594 382.19 106.99)" d="m230.16 261.41 0.99639-22.917 126.54-41.848-1.9928 22.917-125.54 41.848z" fill="url(#c)" fill-rule="evenodd"/>
  <path transform="matrix(1.0594 0 0 1.0594 382.19 106.99)" d="m355.71 220.06-126.04 41.848" fill="none" stroke="#b2e7b1" stroke-linecap="round" stroke-width="3.75"/>
  <path transform="matrix(1.0594 0 0 1.0594 382.19 106.99)" d="m50.317 207.61 181.34 30.888 126.04-41.848-172.37-31.386-135.01 42.346z" fill="#b2e7b1" fill-rule="evenodd"/>
  <path transform="matrix(1.0594 0 0 1.0594 382.19 106.99)" d="m229.46 260.29-175.66-30.767-0.49819-20.426 175.45 32.005 0.70454 19.188z" fill="#b2e7b1" fill-rule="evenodd" stroke="#74d173" stroke-linecap="round" stroke-linejoin="round" stroke-width="6.25"/>
 </g>
 <g transform="translate(-457.59 -38.75)">
  <path d="m803.89 125.09-0.70455 22.546-124 41.568-181.07-52.137 8.4546-2.1136 297.32-9.8637z" fill="#fff" fill-rule="evenodd"/>
  <path transform="translate(447.39 -71.864)" d="m230.16 261.41 0.99639-22.917 126.54-41.848-1.9928 22.917-125.54 41.848z" fill="url(#c)" fill-rule="evenodd"/>
  <path transform="translate(447.39 -71.864)" d="m355.71 220.06-126.04 41.848" fill="none" stroke="#ffe79d" stroke-linecap="round" stroke-width="3.75"/>
  <path transform="translate(447.39 -71.864)" d="m230.16 262.41-180.35-32.881 0.49819-20.426 180.84 29.393-0.99639 23.913z" fill="#ffe79d" fill-rule="evenodd" stroke="#ffb" stroke-linecap="round" stroke-linejoin="round" stroke-width="2.5"/>
  <path transform="translate(447.39 -71.864)" d="m50.317 207.61 181.34 30.888 126.04-41.848-172.37-31.386-135.01 42.346z" fill="#ffe79d" fill-rule="evenodd"/>
 </g>
 <path transform="matrix(1 0 0 .79822 -23.763 -32.091)" d="m314.93 147.99-78.733 39.279-6.6932-4.2273 79.438-37.87 5.9887 2.8182z" fill="#ba928c" fill-rule="evenodd"/>
 <path transform="matrix(1 0 0 .79822 -23.763 -32.091)" d="m101.46 146.58 135.98 39.465 79.57-85.954-128.18-24.318-86.66 38.75-0.70455 32.057z" fill="#e5d8c0" fill-rule="evenodd"/>
 <path transform="matrix(1 0 0 .79822 -23.763 -32.091)" d="m236.73 150.45 80.319-50.375-2.1136 47.557-77.501 38.398-0.70455-35.58z" fill="url(#h)" fill-rule="evenodd"/>
 <path transform="matrix(1 0 0 .79822 -23.763 -32.091)" d="m98.285 114.87c-0.88069 3.2879 1.3868 7.9864 1.7614 16.029 0.46357 10.171-1.0568 14.854 0.35227 16.381l135.63 39.807c-1.0568-3.4053 0.52841-13.856 0.35228-20.08s-1.9375-14.032-1.4091-17.261c29.826-21.254 50.845-33.349 80.671-54.603l-126.82-26.421c-33.114 18.436-57.421 27.712-90.535 46.148z" fill="#be837a" fill-rule="evenodd"/>
 <path transform="matrix(1 0 0 .79822 -23.763 -32.091)" d="m98.268 114.84c0.2491 3.4874 4.1101 19.305 0.87184 32.009 6.4765 1.7437 125.86 36.742 136.5 40.104-0.14531-12.725 0.33212-24.515-0.99639-37.178l-136.38-34.936z" fill="url(#g)" fill-rule="evenodd"/>
 <path transform="matrix(1 0 0 .79822 -23.763 -32.091)" d="m98.461 114.87 136.22 34.916 78.141-54.291-124.53-26.949-89.83 46.324z" fill="url(#f)" fill-rule="evenodd"/>
</svg>
